<?xml version="1.0" encoding="UTF-8" standalone="no"?>
<svg
   xmlns:dc="http://purl.org/dc/elements/1.1/"
   xmlns:cc="http://creativecommons.org/ns#"
   xmlns:rdf="http://www.w3.org/1999/02/22-rdf-syntax-ns#"
   xmlns:svg="http://www.w3.org/2000/svg"
   xmlns="http://www.w3.org/2000/svg"
   xmlns:sodipodi="http://sodipodi.sourceforge.net/DTD/sodipodi-0.dtd"
   xmlns:inkscape="http://www.inkscape.org/namespaces/inkscape"
   aria-hidden="true"
   focusable="false"
   data-prefix="fas"
   data-icon="tractor"
   class="svg-inline--fa fa-tractor"
   role="img"
   viewBox="0 0 640 640"
   version="1.1"
   id="svg4"
   sodipodi:docname="agricultura_ganaderia_pesca.svg"
   width="640"
   height="640"
   inkscape:version="0.92.5 (2060ec1f9f, 2020-04-08)">
  <metadata
     id="metadata10">
    <rdf:RDF>
      <cc:Work
         rdf:about="">
        <dc:format>image/svg+xml</dc:format>
        <dc:type
           rdf:resource="http://purl.org/dc/dcmitype/StillImage" />
        <dc:title></dc:title>
      </cc:Work>
    </rdf:RDF>
  </metadata>
  <defs
     id="defs8" />
  <sodipodi:namedview
     pagecolor="#ffffff"
     bordercolor="#666666"
     borderopacity="1"
     objecttolerance="10"
     gridtolerance="10"
     guidetolerance="10"
     inkscape:pageopacity="0"
     inkscape:pageshadow="2"
     inkscape:window-width="1920"
     inkscape:window-height="1031"
     id="namedview6"
     showgrid="false"
     inkscape:zoom="0.4609375"
     inkscape:cx="30.372881"
     inkscape:cy="256"
     inkscape:window-x="0"
     inkscape:window-y="25"
     inkscape:window-maximized="1"
     inkscape:current-layer="svg4" />
  <path
     d="m 96,128 c 0,-35.35 28.7,-64 64,-64 h 106.3 c 26.2,0 49.7,15.93 59.5,40.23 L 373.7,224 H 480 v -33.8 c 0,-24.8 5.8,-49.32 16.9,-71.54 l 2.5,-4.97 c 7.9,-15.81 27.1,-22.22 42.9,-14.31 15.8,7.9 22.2,27.12 14.3,42.93 l -2.5,4.97 C 547.5,160.61 544,175.3 544,190.2 V 224 h 56 c 22.1,0 40,17.9 40,40 v 45.4 c 0,16.5 -8.5,31.9 -22.6,40.7 l -43.3,27.1 C 559.9,371.3 544.3,368 528,368 c -39.3,0 -74.1,18.9 -96.9,48 H 352 c 0,17.7 -14.3,32 -32,32 h -8.2 c -1.7,4.8 -3.6,9.5 -6.7,14.1 l 6.7,5.8 c 12.5,12.5 12.5,32.7 0,45.2 l -22.7,22.7 c -12.5,12.5 -32.7,12.5 -45.2,0 l -5.8,-6.7 c -4.6,3.1 -9.3,5 -14.1,6.7 v 8.2 c 0,17.7 -14.3,32 -32,32 h -32 c -17.7,0 -32,-14.3 -32,-32 v -8.2 c -4.8,-1.7 -9.5,-3.6 -14.1,-6.7 l -5.8,6.7 c -12.48,12.5 -32.74,12.5 -45.24,0 L 40.24,513.1 c -12.5,-12.5 -12.5,-32.7 0,-45.2 l 5.79,-5.8 C 43.85,457.5 41.9,452.8 40.19,448 H 32 C 14.33,448 0,433.7 0,416 v -32 c 0,-17.7 14.33,-32 32,-32 h 8.19 c 1.71,-4.8 3.66,-9.5 5.84,-14.1 l -5.79,-5.8 c -12.5,-12.5 -12.5,-32.7 0,-45.2 l 22.62,-22.7 c 8.96,-8.9 21.92,-11.5 33.14,-7.6 z m 64,0 v 96 h 144.7 l -38.4,-96 z m 16,192 c -44.2,0 -80,35.8 -80,80 0,44.2 35.8,80 80,80 44.2,0 80,-35.8 80,-80 0,-44.2 -35.8,-80 -80,-80 z m 264,168 c 0,-29.8 14.8,-56.1 37.4,-72 14.3,-10.1 31.8,-16 50.6,-16 2.7,0 5.3,0.1 7.9,0.3 44.9,4 80.1,41.8 80.1,87.7 0,48.6 -39.4,88 -88,88 -48.6,0 -88,-39.4 -88,-88 z m 88,24 c 13.3,0 24,-10.7 24,-24 0,-13.3 -10.7,-24 -24,-24 -13.3,0 -24,10.7 -24,24 0,13.3 10.7,24 24,24 z"
     id="path2"
     inkscape:connector-curvature="0"
     style="fill:currentColor" />
</svg>
