<?xml version="1.0" encoding="UTF-8" standalone="no"?>
<svg
   xmlns:dc="http://purl.org/dc/elements/1.1/"
   xmlns:cc="http://creativecommons.org/ns#"
   xmlns:rdf="http://www.w3.org/1999/02/22-rdf-syntax-ns#"
   xmlns:svg="http://www.w3.org/2000/svg"
   xmlns="http://www.w3.org/2000/svg"
   xmlns:sodipodi="http://sodipodi.sourceforge.net/DTD/sodipodi-0.dtd"
   xmlns:inkscape="http://www.inkscape.org/namespaces/inkscape"
   aria-hidden="true"
   focusable="false"
   data-prefix="fas"
   data-icon="masks-theater"
   class="svg-inline--fa fa-masks-theater"
   role="img"
   viewBox="0 0 640 640"
   version="1.1"
   id="svg14"
   sodipodi:docname="cultura.svg"
   width="640"
   height="640"
   inkscape:version="0.92.5 (2060ec1f9f, 2020-04-08)">
  <metadata
     id="metadata20">
    <rdf:RDF>
      <cc:Work
         rdf:about="">
        <dc:format>image/svg+xml</dc:format>
        <dc:type
           rdf:resource="http://purl.org/dc/dcmitype/StillImage" />
        <dc:title></dc:title>
      </cc:Work>
    </rdf:RDF>
  </metadata>
  <defs
     id="defs18" />
  <sodipodi:namedview
     pagecolor="#ffffff"
     bordercolor="#666666"
     borderopacity="1"
     objecttolerance="10"
     gridtolerance="10"
     guidetolerance="10"
     inkscape:pageopacity="0"
     inkscape:pageshadow="2"
     inkscape:window-width="1920"
     inkscape:window-height="1031"
     id="namedview16"
     showgrid="false"
     inkscape:zoom="0.4609375"
     inkscape:cx="30.372881"
     inkscape:cy="256"
     inkscape:window-x="0"
     inkscape:window-y="25"
     inkscape:window-maximized="1"
     inkscape:current-layer="svg14" />
  <path
     d="m 206.90117,309.08605 c -35.9,10.5 -60.1,41.3 -57.6,74.2 11.4,-12.8 28.8,-23.8 50,-30.9 z m -111.119995,49.8 -31.67,-179.4 c -0.37,-1.6 0.26,-2.6 0.26,-2.6 57.749995,-32.13 123.099995,-48.99 188.999995,-48.99 1.625,0 3.113,0.0745 4.738,0.0745 13.1,-13.5 31.75,-22.75 51.62,-26 18.87,-3.000002 38.12,-4.500002 57.25,-5.250002 -9.999,-14 -24.47,-24.27 -41.84,-27.02 -23.87,-3.875 -47.9,-5.732 -71.77,-5.732 -76.74,0 -152.4,19.45 -220.099995,57.070002 -24.2470001,13.5175 -37.1210001,41.4475 -32.2470001,69.5475 l 31.7490001,179.4 c 14.25,80.5 136.299995,142 204.499995,142 3.625,0 6.777,-0.2979 10.03,-0.6729 -13.5,-17.13 -28.1,-40.5 -39.5,-67.63 -47.7,-12.8971 -106.1,-51.6971 -112.019995,-84.7971 z m 97.619995,-137.3 c -0.8,-4.2 -2.3,-7.9 -4.1,-11.4 -8.249,8.875 -20.62,15.75 -35.25,18.37 -14.62,2.5 -28.75,0.376 -39.5,-5.249 -0.5,4 -0.6249,7.998 0.125,12.12 3.75,21.75 24.5,36.24 46.25,32.37 21.675,-3.711 36.375,-24.511 32.475,-46.211 z m 413.4,-36.6 c -88.87,-49.38 -191.4,-67.38 -291.9,-51.38 -27.4,3.48 -49.1,26.23 -54.1,53.48 l -31.8,180.4 c -15.37,87.13 95.33,196.3 158.3,207.3 62.1,11.13 204.5,-53.68 219.9,-140.8 l 31.75,-179.5 c 4.95,-28.2 -7.95,-56.1 -32.15,-69.5 z m -273.3,96.8 c 3.875,-21.75 24.62,-36.25 46.37,-32.37 21.75,3.75 36.25,24.49 32.5,46.12 -0.7499,4.125 -2.25,7.873 -4.125,11.5 -8.249,-9 -20.62,-15.75 -35.25,-18.37 -14.75,-2.625 -28.75,-0.3759 -39.5,5.124 -1.395,-3.904 -0.595,-7.904 0.005,-12.004 z m 69.6,198.7 c -55.62,-9.875 -93.49,-59.23 -88.99,-112.1 20.62,25.63 56.25,46.24 99.49,53.87 43.25,7.625 83.74,0.3781 111.9,-16.62 -13.3,51.05 -65.8,84.65 -122.4,74.85 z m 131.3,-151.3 c -8.249,-8.875 -20.75,-15.75 -35.37,-18.37 -14.62,-2.5 -28.62,-0.3759 -39.5,5.249 -0.5,-4 -0.625,-7.998 0.125,-12.12 3.875,-21.75 24.62,-36.25 46.37,-32.37 21.75,3.875 36.25,24.49 32.37,46.24 -0.795,4.071 -2.295,7.871 -3.995,11.371 z"
     id="path12"
     inkscape:connector-curvature="0"
     style="fill:currentColor" />
</svg>
