<?xml version="1.0" encoding="UTF-8" standalone="no"?>
<svg
   xmlns:dc="http://purl.org/dc/elements/1.1/"
   xmlns:cc="http://creativecommons.org/ns#"
   xmlns:rdf="http://www.w3.org/1999/02/22-rdf-syntax-ns#"
   xmlns:svg="http://www.w3.org/2000/svg"
   xmlns="http://www.w3.org/2000/svg"
   xmlns:sodipodi="http://sodipodi.sourceforge.net/DTD/sodipodi-0.dtd"
   xmlns:inkscape="http://www.inkscape.org/namespaces/inkscape"
   aria-hidden="true"
   focusable="false"
   data-prefix="fas"
   data-icon="briefcase"
   class="svg-inline--fa fa-briefcase"
   role="img"
   viewBox="0 0 640 640"
   version="1.1"
   id="svg34"
   sodipodi:docname="empresa_profesionales.svg"
   width="640"
   height="640"
   inkscape:version="0.92.5 (2060ec1f9f, 2020-04-08)">
  <metadata
     id="metadata40">
    <rdf:RDF>
      <cc:Work
         rdf:about="">
        <dc:format>image/svg+xml</dc:format>
        <dc:type
           rdf:resource="http://purl.org/dc/dcmitype/StillImage" />
        <dc:title></dc:title>
      </cc:Work>
    </rdf:RDF>
  </metadata>
  <defs
     id="defs38" />
  <sodipodi:namedview
     pagecolor="#ffffff"
     bordercolor="#666666"
     borderopacity="1"
     objecttolerance="10"
     gridtolerance="10"
     guidetolerance="10"
     inkscape:pageopacity="0"
     inkscape:pageshadow="2"
     inkscape:window-width="1920"
     inkscape:window-height="1031"
     id="namedview36"
     showgrid="false"
     inkscape:zoom="0.4609375"
     inkscape:cx="-33.627119"
     inkscape:cy="256"
     inkscape:window-x="0"
     inkscape:window-y="25"
     inkscape:window-maximized="1"
     inkscape:current-layer="svg34" />
  <path
     d="m 384,416 c 0,8.844 -7.156,16 -16,16 h -96 c -8.8,0 -16,-7.2 -16,-16 V 368 H 64 v 144 c 0,25.6 22.41,48 48,48 h 416 c 25.59,0 48,-22.41 48,-48 V 368 H 384 Z M 528,176 H 448 V 128 C 448,102.41 425.6,80 400,80 H 240 c -25.6,0 -48,22.41 -48,48 v 48 h -80 c -25.59,0 -48,22.4 -48,48 V 336 H 576 V 224 c 0,-25.6 -22.4,-48 -48,-48 z m -128,0 H 240 v -48 h 160 z"
     id="path32"
     inkscape:connector-curvature="0"
     style="fill:currentColor" />
</svg>
