<?xml version="1.0" encoding="UTF-8" standalone="no"?>
<svg
   xmlns:dc="http://purl.org/dc/elements/1.1/"
   xmlns:cc="http://creativecommons.org/ns#"
   xmlns:rdf="http://www.w3.org/1999/02/22-rdf-syntax-ns#"
   xmlns:svg="http://www.w3.org/2000/svg"
   xmlns="http://www.w3.org/2000/svg"
   xmlns:sodipodi="http://sodipodi.sourceforge.net/DTD/sodipodi-0.dtd"
   xmlns:inkscape="http://www.inkscape.org/namespaces/inkscape"
   aria-hidden="true"
   focusable="false"
   data-prefix="fas"
   data-icon="graduation-cap"
   class="svg-inline--fa fa-graduation-cap"
   role="img"
   viewBox="0 0 640 640"
   version="1.1"
   id="svg44"
   sodipodi:docname="estudiar.svg"
   width="640"
   height="640"
   inkscape:version="0.92.5 (2060ec1f9f, 2020-04-08)">
  <metadata
     id="metadata50">
    <rdf:RDF>
      <cc:Work
         rdf:about="">
        <dc:format>image/svg+xml</dc:format>
        <dc:type
           rdf:resource="http://purl.org/dc/dcmitype/StillImage" />
        <dc:title></dc:title>
      </cc:Work>
    </rdf:RDF>
  </metadata>
  <defs
     id="defs48" />
  <sodipodi:namedview
     pagecolor="#ffffff"
     bordercolor="#666666"
     borderopacity="1"
     objecttolerance="10"
     gridtolerance="10"
     guidetolerance="10"
     inkscape:pageopacity="0"
     inkscape:pageshadow="2"
     inkscape:window-width="1920"
     inkscape:window-height="1031"
     id="namedview46"
     showgrid="false"
     inkscape:zoom="0.4609375"
     inkscape:cx="30.372881"
     inkscape:cy="256"
     inkscape:window-x="0"
     inkscape:window-y="25"
     inkscape:window-maximized="1"
     inkscape:current-layer="svg44" />
  <path
     d="m 623.1,200.89125 -282.7,-101.2 c -13.73,-4.91 -28.7,-4.91 -42.43,0 l -281.92,101.2 c -9.612,3.5 -16.05,12.7 -16.05,23.1 0,10.4 6.438,19.65 16.05,23.09 l 60.02,21.51 c -11.89,15.8 -20.26,34.16 -24.55,53.95 -11.47,4.85 -19.52,16.25 -19.52,29.45 0,9.953 4.814,18.49 11.94,24.36 l -24.83,149 c -1.63,9.74 5.89,18.64 15.78,18.64 h 58.22 c 9.887,0 17.41,-8.879 15.78,-18.63 l -24.83,-149 c 7.13,-5.87 11.94,-15.27 11.94,-24.37 0,-10.29 -5.174,-19.03 -12.72,-24.89 4.252,-17.76 12.88,-33.82 24.94,-47.03 l 190.6,68.23 c 13.73,4.91 28.7,4.91 42.43,0 l 282.7,-101.2 c 9.65,-3.51 16.05,-12.71 16.05,-23.11 0,-10.4 -6.4,-19.6 -16.9,-23.1 z m -272,177.5 c -9.4,3.7 -20.2,5.6 -31.1,5.6 -10.92,0 -21.69,-1.867 -32,-5.555 l -145.2,-51.945 -14.8,142.8 c 0,41.3 85.1,74.7 192,74.7 105.1,0 192,-33.4 192,-74.67 l -14.78,-142.9 z"
     id="path42"
     inkscape:connector-curvature="0"
     style="fill:currentColor" />
</svg>
