<?xml version="1.0" encoding="UTF-8" standalone="no"?>
<svg
   xmlns:dc="http://purl.org/dc/elements/1.1/"
   xmlns:cc="http://creativecommons.org/ns#"
   xmlns:rdf="http://www.w3.org/1999/02/22-rdf-syntax-ns#"
   xmlns:svg="http://www.w3.org/2000/svg"
   xmlns="http://www.w3.org/2000/svg"
   xmlns:sodipodi="http://sodipodi.sourceforge.net/DTD/sodipodi-0.dtd"
   xmlns:inkscape="http://www.inkscape.org/namespaces/inkscape"
   aria-hidden="true"
   focusable="false"
   data-prefix="fas"
   data-icon="book"
   class="svg-inline--fa fa-book"
   role="img"
   viewBox="0 0 640 640"
   version="1.1"
   id="svg64"
   sodipodi:docname="investigacion_innovacion.svg"
   width="640"
   height="640"
   inkscape:version="0.92.5 (2060ec1f9f, 2020-04-08)">
  <metadata
     id="metadata70">
    <rdf:RDF>
      <cc:Work
         rdf:about="">
        <dc:format>image/svg+xml</dc:format>
        <dc:type
           rdf:resource="http://purl.org/dc/dcmitype/StillImage" />
        <dc:title></dc:title>
      </cc:Work>
    </rdf:RDF>
  </metadata>
  <defs
     id="defs68" />
  <sodipodi:namedview
     pagecolor="#ffffff"
     bordercolor="#666666"
     borderopacity="1"
     objecttolerance="10"
     gridtolerance="10"
     guidetolerance="10"
     inkscape:pageopacity="0"
     inkscape:pageshadow="2"
     inkscape:window-width="1920"
     inkscape:window-height="1031"
     id="namedview66"
     showgrid="false"
     inkscape:zoom="0.4609375"
     inkscape:cx="-65.627119"
     inkscape:cy="256"
     inkscape:window-x="0"
     inkscape:window-y="25"
     inkscape:window-maximized="1"
     inkscape:current-layer="svg64" />
  <path
     d="M 544,400 V 112 C 544,85.49 522.5,64 496,64 H 192 c -53.02,0 -96,42.98 -96,96 v 320 c 0,53.02 42.98,96 96,96 h 320 c 17.67,0 32,-14.33 32,-31.1 0,-11.72 -6.607,-21.52 -16,-27.1 V 436.44 C 537.8,426.8 544,414.2 544,400 Z M 239.1,192 h 192 c 9.7,0 16.9,7.2 16.9,16 0,8.8 -7.2,16 -16,16 H 239.1 c -7.9,0 -15.1,-7.2 -15.1,-16 0,-8.8 7.2,-16 15.1,-16 z m 0,64 h 192 c 9.7,0 16.9,7.2 16.9,16 0,8.8 -7.2,16 -16,16 H 239.1 c -7.9,0 -15.1,-7.2 -15.1,-16 0,-8.8 7.2,-16 15.1,-16 z M 480,512 H 192 c -17.67,0 -32,-14.33 -32,-32 0,-17.67 14.33,-32 32,-32 h 288 z"
     id="path62"
     inkscape:connector-curvature="0"
     style="fill:currentColor" />
</svg>
