<?xml version="1.0" encoding="UTF-8" standalone="no"?>
<svg
   xmlns:dc="http://purl.org/dc/elements/1.1/"
   xmlns:cc="http://creativecommons.org/ns#"
   xmlns:rdf="http://www.w3.org/1999/02/22-rdf-syntax-ns#"
   xmlns:svg="http://www.w3.org/2000/svg"
   xmlns="http://www.w3.org/2000/svg"
   xmlns:sodipodi="http://sodipodi.sourceforge.net/DTD/sodipodi-0.dtd"
   xmlns:inkscape="http://www.inkscape.org/namespaces/inkscape"
   aria-hidden="true"
   focusable="false"
   data-prefix="fas"
   data-icon="memory"
   class="svg-inline--fa fa-memory"
   role="img"
   viewBox="0 0 640 640"
   version="1.1"
   id="svg94"
   sodipodi:docname="nuevas_tecnologia.svg"
   width="640"
   height="640"
   inkscape:version="0.92.5 (2060ec1f9f, 2020-04-08)">
  <metadata
     id="metadata100">
    <rdf:RDF>
      <cc:Work
         rdf:about="">
        <dc:format>image/svg+xml</dc:format>
        <dc:type
           rdf:resource="http://purl.org/dc/dcmitype/StillImage" />
        <dc:title></dc:title>
      </cc:Work>
    </rdf:RDF>
  </metadata>
  <defs
     id="defs98" />
  <sodipodi:namedview
     pagecolor="#ffffff"
     bordercolor="#666666"
     borderopacity="1"
     objecttolerance="10"
     gridtolerance="10"
     guidetolerance="10"
     inkscape:pageopacity="0"
     inkscape:pageshadow="2"
     inkscape:window-width="1920"
     inkscape:window-height="1031"
     id="namedview96"
     showgrid="false"
     inkscape:zoom="0.4609375"
     inkscape:cx="-1.6271186"
     inkscape:cy="256"
     inkscape:window-x="0"
     inkscape:window-y="25"
     inkscape:window-maximized="1"
     inkscape:current-layer="svg94" />
  <path
     d="m 32,512 h 80 v -32 c 0,-8.838 7.164,-16 16,-16 8.838,0 16,7.162 16,16 v 32 h 96 v -32 c 0,-8.838 7.164,-16 16,-16 8.838,0 16,7.162 16,16 v 32 h 96 v -32 c 0,-8.838 7.164,-16 16,-16 8.838,0 16,7.162 16,16 v 32 h 96 v -32 c 0,-8.838 7.164,-16 16,-16 8.838,0 16,7.162 16,16 v 32 h 80 V 416 H 32 Z M 608,210.9 V 176 c 0,-26.51 -21.5,-48 -48,-48 H 80 c -26.51,0 -48,21.49 -48,48 v 34.94 c 18.6,6.56 32,24.16 32,45.06 0,20.9 -13.4,38.5 -32,45.1 V 384 h 576 v -82.9 c -18.6,-6.6 -32,-24.2 -32,-45.1 0,-20.9 13.4,-38.5 32,-45.1 z M 224,304 c 0,8.8 -7.2,16 -16,16 h -32 c -8.8,0 -16,-7.2 -16,-16 v -96 c 0,-8.8 7.2,-16 16,-16 h 32 c 8.8,0 16,7.2 16,16 z m 128,0 c 0,8.8 -7.2,16 -16,16 h -32 c -8.8,0 -16,-7.2 -16,-16 v -96 c 0,-8.8 7.2,-16 16,-16 h 32 c 8.8,0 16,7.2 16,16 z m 128,0 c 0,8.8 -7.2,16 -16,16 h -32 c -8.8,0 -16,-7.2 -16,-16 v -96 c 0,-8.8 7.2,-16 16,-16 h 32 c 8.8,0 16,7.2 16,16 z"
     id="path92"
     inkscape:connector-curvature="0"
     style="fill:currentColor" />
</svg>
