<?xml version="1.0" encoding="UTF-8" standalone="no"?>
<svg
   xmlns:dc="http://purl.org/dc/elements/1.1/"
   xmlns:cc="http://creativecommons.org/ns#"
   xmlns:rdf="http://www.w3.org/1999/02/22-rdf-syntax-ns#"
   xmlns:svg="http://www.w3.org/2000/svg"
   xmlns="http://www.w3.org/2000/svg"
   xmlns:sodipodi="http://sodipodi.sourceforge.net/DTD/sodipodi-0.dtd"
   xmlns:inkscape="http://www.inkscape.org/namespaces/inkscape"
   aria-hidden="true"
   focusable="false"
   data-prefix="fas"
   data-icon="house-user"
   class="svg-inline--fa fa-house-user"
   role="img"
   viewBox="0 0 640 640"
   version="1.1"
   id="svg104"
   sodipodi:docname="otros.svg"
   width="640"
   height="640"
   inkscape:version="0.92.5 (2060ec1f9f, 2020-04-08)">
  <metadata
     id="metadata110">
    <rdf:RDF>
      <cc:Work
         rdf:about="">
        <dc:format>image/svg+xml</dc:format>
        <dc:type
           rdf:resource="http://purl.org/dc/dcmitype/StillImage" />
        <dc:title></dc:title>
      </cc:Work>
    </rdf:RDF>
  </metadata>
  <defs
     id="defs108" />
  <sodipodi:namedview
     pagecolor="#ffffff"
     bordercolor="#666666"
     borderopacity="1"
     objecttolerance="10"
     gridtolerance="10"
     guidetolerance="10"
     inkscape:pageopacity="0"
     inkscape:pageshadow="2"
     inkscape:window-width="1920"
     inkscape:window-height="1031"
     id="namedview106"
     showgrid="false"
     inkscape:zoom="0.5855728"
     inkscape:cx="671.68812"
     inkscape:cy="97.280211"
     inkscape:window-x="0"
     inkscape:window-y="25"
     inkscape:window-maximized="1"
     inkscape:current-layer="svg104" />
  <path
     d="m 607.81196,319.5 c 0,18 -15,32.1 -32,32.1 h -32 l 0.7,160.1 c 0.1,35.5 -28.6,64.3 -64,64.3 h -320.4 c -35.35,0 -64.010004,-28.7 -64.010004,-64 V 351.6 h -32.04 c -18.03,0 -32.05,-14.1 -32.05,-32.1 0,-9 3.004,-17 10.01,-24 L 298.41196,72.016 c 7,-7.014 15,-8.016 22,-8.016 7,0 15,2.004 21.1,7.014 l 255.3,224.486 c 8,7 12.1,15 11,24 z m -287.8,-95.5 c -35.3,0 -64,28.7 -64,64 0,35.3 28.7,64 64,64 35.3,0 64,-28.7 64,-64 0,-35.3 -28.7,-64 -64,-64 z m -32,160 c -44.2,0 -80,35.8 -80,80 0,8.8 7.2,16 16,16 h 192 c 8.8,0 16,-7.2 16,-16 0,-44.2 -35.8,-80 -80,-80 z"
     id="path102"
     inkscape:connector-curvature="0"
     style="fill:currentColor" />
</svg>
