<?xml version="1.0" encoding="UTF-8" standalone="no"?>
<svg
   xmlns:dc="http://purl.org/dc/elements/1.1/"
   xmlns:cc="http://creativecommons.org/ns#"
   xmlns:rdf="http://www.w3.org/1999/02/22-rdf-syntax-ns#"
   xmlns:svg="http://www.w3.org/2000/svg"
   xmlns="http://www.w3.org/2000/svg"
   xmlns:sodipodi="http://sodipodi.sourceforge.net/DTD/sodipodi-0.dtd"
   xmlns:inkscape="http://www.inkscape.org/namespaces/inkscape"
   aria-hidden="true"
   focusable="false"
   data-prefix="fas"
   data-icon="building"
   class="svg-inline--fa fa-building"
   role="img"
   viewBox="0 0 640 640"
   version="1.1"
   id="svg114"
   sodipodi:docname="portal.svg"
   width="640"
   height="640"
   inkscape:version="0.92.5 (2060ec1f9f, 2020-04-08)">
  <metadata
     id="metadata120">
    <rdf:RDF>
      <cc:Work
         rdf:about="">
        <dc:format>image/svg+xml</dc:format>
        <dc:type
           rdf:resource="http://purl.org/dc/dcmitype/StillImage" />
        <dc:title></dc:title>
      </cc:Work>
    </rdf:RDF>
  </metadata>
  <defs
     id="defs118" />
  <sodipodi:namedview
     pagecolor="#ffffff"
     bordercolor="#666666"
     borderopacity="1"
     objecttolerance="10"
     gridtolerance="10"
     guidetolerance="10"
     inkscape:pageopacity="0"
     inkscape:pageshadow="2"
     inkscape:window-width="1920"
     inkscape:window-height="1031"
     id="namedview116"
     showgrid="false"
     inkscape:zoom="0.4609375"
     inkscape:cx="-97.627119"
     inkscape:cy="256"
     inkscape:window-x="0"
     inkscape:window-y="25"
     inkscape:window-maximized="1"
     inkscape:current-layer="svg114" />
  <path
     d="m 464,64 c 26.5,0 48,21.49 48,48 v 416 c 0,26.5 -21.5,48 -48,48 h -96 v -80 c 0,-26.5 -21.5,-48 -48,-48 -26.5,0 -48,21.5 -48,48 v 80 h -96 c -26.51,0 -48,-21.5 -48,-48 V 112 c 0,-26.51 21.49,-48 48,-48 z M 192,336 c 0,8.8 7.16,16 16,16 h 32 c 8.8,0 16,-7.2 16,-16 v -32 c 0,-8.8 -7.2,-16 -16,-16 h -32 c -8.84,0 -16,7.2 -16,16 z m 112,-48 c -8.8,0 -16,7.2 -16,16 v 32 c 0,8.8 7.2,16 16,16 h 32 c 8.8,0 16,-7.2 16,-16 v -32 c 0,-8.8 -7.2,-16 -16,-16 z m 80,48 c 0,8.8 7.2,16 16,16 h 32 c 8.8,0 16,-7.2 16,-16 v -32 c 0,-8.8 -7.2,-16 -16,-16 h -32 c -8.8,0 -16,7.2 -16,16 z M 208,160 c -8.84,0 -16,7.2 -16,16 v 32 c 0,8.8 7.16,16 16,16 h 32 c 8.8,0 16,-7.2 16,-16 v -32 c 0,-8.8 -7.2,-16 -16,-16 z m 80,48 c 0,8.8 7.2,16 16,16 h 32 c 8.8,0 16,-7.2 16,-16 v -32 c 0,-8.8 -7.2,-16 -16,-16 h -32 c -8.8,0 -16,7.2 -16,16 z m 112,-48 c -8.8,0 -16,7.2 -16,16 v 32 c 0,8.8 7.2,16 16,16 h 32 c 8.8,0 16,-7.2 16,-16 v -32 c 0,-8.8 -7.2,-16 -16,-16 z"
     id="path112"
     inkscape:connector-curvature="0"
     style="fill:currentColor" />
</svg>
