<?xml version="1.0" encoding="UTF-8" standalone="no"?>
<svg
   xmlns:dc="http://purl.org/dc/elements/1.1/"
   xmlns:cc="http://creativecommons.org/ns#"
   xmlns:rdf="http://www.w3.org/1999/02/22-rdf-syntax-ns#"
   xmlns:svg="http://www.w3.org/2000/svg"
   xmlns="http://www.w3.org/2000/svg"
   xmlns:sodipodi="http://sodipodi.sourceforge.net/DTD/sodipodi-0.dtd"
   xmlns:inkscape="http://www.inkscape.org/namespaces/inkscape"
   aria-hidden="true"
   focusable="false"
   data-prefix="fas"
   data-icon="hospital"
   class="svg-inline--fa fa-hospital"
   role="img"
   viewBox="0 0 640 640"
   version="1.1"
   id="svg124"
   sodipodi:docname="salud.svg"
   width="640"
   height="640"
   inkscape:version="0.92.5 (2060ec1f9f, 2020-04-08)">
  <metadata
     id="metadata130">
    <rdf:RDF>
      <cc:Work
         rdf:about="">
        <dc:format>image/svg+xml</dc:format>
        <dc:type
           rdf:resource="http://purl.org/dc/dcmitype/StillImage" />
        <dc:title></dc:title>
      </cc:Work>
    </rdf:RDF>
  </metadata>
  <defs
     id="defs128" />
  <sodipodi:namedview
     pagecolor="#ffffff"
     bordercolor="#666666"
     borderopacity="1"
     objecttolerance="10"
     gridtolerance="10"
     guidetolerance="10"
     inkscape:pageopacity="0"
     inkscape:pageshadow="2"
     inkscape:window-width="1920"
     inkscape:window-height="1031"
     id="namedview126"
     showgrid="false"
     inkscape:zoom="0.4609375"
     inkscape:cx="30.372881"
     inkscape:cy="256"
     inkscape:window-x="0"
     inkscape:window-y="25"
     inkscape:window-maximized="1"
     inkscape:current-layer="svg124" />
  <path
     d="m 192,112 c 0,-26.51 21.5,-48 48,-48 h 160 c 26.5,0 48,21.49 48,48 v 464 h -80 v -80 c 0,-26.5 -21.5,-48 -48,-48 -26.5,0 -48,21.5 -48,48 v 80 h -80 z m 120,16 c -8.8,0 -16,7.16 -16,16 v 24 h -24 c -8.8,0 -16,7.2 -16,16 v 16 c 0,8.8 7.2,16 16,16 h 24 v 24 c 0,8.8 7.2,16 16,16 h 16 c 8.8,0 16,-7.2 16,-16 v -24 h 24 c 8.8,0 16,-7.2 16,-16 v -16 c 0,-8.8 -7.2,-16 -16,-16 h -24 v -24 c 0,-8.84 -7.2,-16 -16,-16 z M 160,160 V 576 H 48 C 21.49,576 0,554.5 0,528 V 384 h 80 c 8.84,0 16,-7.2 16,-16 0,-8.8 -7.16,-16 -16,-16 H 0 v -64 h 80 c 8.84,0 16,-7.2 16,-16 0,-8.8 -7.16,-16 -16,-16 H 0 v -48 c 0,-26.5 21.49,-48 48,-48 z m 432,0 c 26.5,0 48,21.5 48,48 v 48 h -80 c -8.8,0 -16,7.2 -16,16 0,8.8 7.2,16 16,16 h 80 v 64 h -80 c -8.8,0 -16,7.2 -16,16 0,8.8 7.2,16 16,16 h 80 v 144 c 0,26.5 -21.5,48 -48,48 H 480 V 160 Z"
     id="path122"
     inkscape:connector-curvature="0"
     style="fill:currentColor" />
</svg>
