<?xml version="1.0" encoding="UTF-8" standalone="no"?>
<svg
   xmlns:dc="http://purl.org/dc/elements/1.1/"
   xmlns:cc="http://creativecommons.org/ns#"
   xmlns:rdf="http://www.w3.org/1999/02/22-rdf-syntax-ns#"
   xmlns:svg="http://www.w3.org/2000/svg"
   xmlns="http://www.w3.org/2000/svg"
   xmlns:sodipodi="http://sodipodi.sourceforge.net/DTD/sodipodi-0.dtd"
   xmlns:inkscape="http://www.inkscape.org/namespaces/inkscape"
   aria-hidden="true"
   focusable="false"
   data-prefix="fas"
   data-icon="people-arrows-left-right"
   class="svg-inline--fa fa-people-arrows-left-right"
   role="img"
   viewBox="0 0 640 640"
   version="1.1"
   id="svg134"
   sodipodi:docname="servivios_sociales.svg"
   width="640"
   height="640"
   inkscape:version="0.92.5 (2060ec1f9f, 2020-04-08)">
  <metadata
     id="metadata140">
    <rdf:RDF>
      <cc:Work
         rdf:about="">
        <dc:format>image/svg+xml</dc:format>
        <dc:type
           rdf:resource="http://purl.org/dc/dcmitype/StillImage" />
        <dc:title></dc:title>
      </cc:Work>
    </rdf:RDF>
  </metadata>
  <defs
     id="defs138" />
  <sodipodi:namedview
     pagecolor="#ffffff"
     bordercolor="#666666"
     borderopacity="1"
     objecttolerance="10"
     gridtolerance="10"
     guidetolerance="10"
     inkscape:pageopacity="0"
     inkscape:pageshadow="2"
     inkscape:window-width="1920"
     inkscape:window-height="1031"
     id="namedview136"
     showgrid="false"
     inkscape:zoom="0.4609375"
     inkscape:cx="-1.6271186"
     inkscape:cy="256"
     inkscape:window-x="0"
     inkscape:window-y="25"
     inkscape:window-maximized="1"
     inkscape:current-layer="svg134" />
  <path
     d="m 128,368.1 c 0,-12.16 4.971,-23.83 13.64,-32.01 l 72.13,-68.08 c 1.65,-1.555 3.773,-2.311 5.611,-3.578 C 209.1,240.8 187,224 160,224 H 96 c -35.35,0 -64,28.7 -64,64 v 96 c 0,17.67 14.33,32 31.1,32 L 64,544 c 0,17.67 14.33,32 32,32 h 64 c 17.67,0 32,-14.33 32,-32 V 447.61 L 141.64,400.08 C 132.1,391.9 128,380.2 128,368.1 Z M 512,192 c 35.38,0 64,-28.62 64,-64 0,-35.38 -28.62,-64 -64,-64 -35.38,0 -64,28.62 -64,64 0,35.38 28.6,64 64,64 z m -384,0 c 35.38,0 64,-28.62 64,-64 0,-35.38 -28.6,-64 -64,-64 -35.4,0 -64,28.62 -64,64 0,35.38 28.63,64 64,64 z m 348.4,167.3 -72.1,-68 c -3.49,-3.293 -8.607,-4.193 -13.01,-2.299 C 386.9,290.9 384,295.2 384,300 v 36 H 256 v -36 c 0,-4.795 -2.857,-9.133 -7.262,-11.03 C 244.3,287.1 239.2,287.1 235.7,291.3 l -72.1,68 c -4.805,4.535 -4.805,12.94 0,17.47 l 72.12,68.07 c 3.49,3.291 8.607,4.191 13.01,2.297 C 253.1,445.3 256,440.9 256,436.1 V 400 h 128 v 36.14 c 0,4.795 2.857,9.135 7.262,11.04 4.406,1.893 9.523,0.9922 13.01,-2.299 l 72.12,-68.07 C 481.2,372.3 481.2,363.9 476.4,359.3 Z M 544,224 h -64 c -26.1,0 -49.98,16.77 -59.38,40.42 1.842,1.271 3.969,2.027 5.623,3.588 l 72.12,68.06 C 507,344.2 512,355.9 512,368.1 c 0.002,12.16 -4.969,23.83 -13.64,32.01 L 448,447.6 V 544 c 0,17.67 14.33,32 32,32 h 64 c 17.67,0 32,-14.33 32,-32 V 416 c 17.67,0 32,-14.33 32,-32 v -96 c 0,-35.3 -28.7,-64 -64,-64 z"
     id="path132"
     inkscape:connector-curvature="0"
     style="fill:currentColor" />
</svg>
