<?xml version="1.0" encoding="UTF-8" standalone="no"?>
<svg
   xmlns:dc="http://purl.org/dc/elements/1.1/"
   xmlns:cc="http://creativecommons.org/ns#"
   xmlns:rdf="http://www.w3.org/1999/02/22-rdf-syntax-ns#"
   xmlns:svg="http://www.w3.org/2000/svg"
   xmlns="http://www.w3.org/2000/svg"
   xmlns:sodipodi="http://sodipodi.sourceforge.net/DTD/sodipodi-0.dtd"
   xmlns:inkscape="http://www.inkscape.org/namespaces/inkscape"
   aria-hidden="true"
   focusable="false"
   data-prefix="fas"
   data-icon="truck"
   class="svg-inline--fa fa-truck"
   role="img"
   viewBox="0 0 640 640"
   version="1.1"
   id="svg144"
   sodipodi:docname="trafico_transporte.svg"
   width="640"
   height="640"
   inkscape:version="0.92.5 (2060ec1f9f, 2020-04-08)">
  <metadata
     id="metadata150">
    <rdf:RDF>
      <cc:Work
         rdf:about="">
        <dc:format>image/svg+xml</dc:format>
        <dc:type
           rdf:resource="http://purl.org/dc/dcmitype/StillImage" />
        <dc:title></dc:title>
      </cc:Work>
    </rdf:RDF>
  </metadata>
  <defs
     id="defs148" />
  <sodipodi:namedview
     pagecolor="#ffffff"
     bordercolor="#666666"
     borderopacity="1"
     objecttolerance="10"
     gridtolerance="10"
     guidetolerance="10"
     inkscape:pageopacity="0"
     inkscape:pageshadow="2"
     inkscape:window-width="1920"
     inkscape:window-height="1031"
     id="namedview146"
     showgrid="false"
     inkscape:zoom="0.4609375"
     inkscape:cx="30.372881"
     inkscape:cy="256"
     inkscape:window-x="0"
     inkscape:window-y="25"
     inkscape:window-maximized="1"
     inkscape:current-layer="svg144" />
  <path
     d="m 368,64 c 26.5,0 48,21.49 48,48 v 48 h 50.7 c 17,0 32.4,6.7 45.3,18.7 l 77.3,77.3 c 12,12 18.7,28.3 18.7,45.3 V 416 c 17.7,0 32,14.3 32,32 0,17.7 -14.3,32 -32,32 h -32 c 0,53 -43,96 -96,96 -53.9,0 -96,-43 -96,-96 H 256 c 0,53 -43,96 -96,96 -53.9,0 -96,-43 -96,-96 H 48 C 21.49,480 0,458.5 0,432 V 112 C 0,85.49 21.49,64 48,64 Z m 48,160 v 96 H 544 V 301.3 L 466.7,224 Z M 160,432 c -26.5,0 -48,21.5 -48,48 0,26.5 21.5,48 48,48 26.5,0 48,-21.5 48,-48 0,-26.5 -21.5,-48 -48,-48 z m 320,96 c 26.5,0 48,-21.5 48,-48 0,-26.5 -21.5,-48 -48,-48 -26.5,0 -48,21.5 -48,48 0,26.5 21.5,48 48,48 z"
     id="path142"
     inkscape:connector-curvature="0"
     style="fill:currentColor" />
</svg>
