<?xml version="1.0" encoding="UTF-8" standalone="no"?>
<svg
   xmlns:dc="http://purl.org/dc/elements/1.1/"
   xmlns:cc="http://creativecommons.org/ns#"
   xmlns:rdf="http://www.w3.org/1999/02/22-rdf-syntax-ns#"
   xmlns:svg="http://www.w3.org/2000/svg"
   xmlns="http://www.w3.org/2000/svg"
   xmlns:sodipodi="http://sodipodi.sourceforge.net/DTD/sodipodi-0.dtd"
   xmlns:inkscape="http://www.inkscape.org/namespaces/inkscape"
   aria-hidden="true"
   focusable="false"
   data-prefix="fas"
   data-icon="cart-flatbed-suitcase"
   class="svg-inline--fa fa-cart-flatbed-suitcase"
   role="img"
   viewBox="0 0 640 640"
   version="1.1"
   id="svg154"
   sodipodi:docname="turismo_ocio.svg"
   width="640"
   height="640"
   inkscape:version="0.92.5 (2060ec1f9f, 2020-04-08)">
  <metadata
     id="metadata160">
    <rdf:RDF>
      <cc:Work
         rdf:about="">
        <dc:format>image/svg+xml</dc:format>
        <dc:type
           rdf:resource="http://purl.org/dc/dcmitype/StillImage" />
        <dc:title></dc:title>
      </cc:Work>
    </rdf:RDF>
  </metadata>
  <defs
     id="defs158" />
  <sodipodi:namedview
     pagecolor="#ffffff"
     bordercolor="#666666"
     borderopacity="1"
     objecttolerance="10"
     gridtolerance="10"
     guidetolerance="10"
     inkscape:pageopacity="0"
     inkscape:pageshadow="2"
     inkscape:window-width="1920"
     inkscape:window-height="1031"
     id="namedview156"
     showgrid="false"
     inkscape:zoom="0.4609375"
     inkscape:cx="30.372881"
     inkscape:cy="256"
     inkscape:window-x="0"
     inkscape:window-y="25"
     inkscape:window-maximized="1"
     inkscape:current-layer="svg154" />
  <path
     d="m 541.2,512 c 0.9,5 2.9,10.4 2.9,16 0,26.5 -21.5,48 -48.1,48 -26.5,0 -47.9,-21.5 -47.9,-48 0,-5.6 1.1,-11 2,-16 h -197 c 1.8,5 2.9,10.4 2.9,16 0,26.5 -21.5,48 -48,48 -26.5,0 -48,-21.5 -48,-48 0,-5.6 1.1,-11 2.9,-16 H 96 C 78.4,512 64,497.6 64,480 V 144 c 0,-8.84 -7.16,-16 -16,-16 H 32 C 14.4,128 0,113.6 0,96 0,78.4 14.4,64 32,64 h 32 c 35.2,0 64,28.8 64,64 v 320 h 480 c 17.6,0 32,14.4 32,32 0,17.6 -14.4,32 -32,32 z M 432,64 c 26.5,0 48,21.5 48,48 V 384 H 288 V 112 c 0,-26.5 21.5,-48 48,-48 z m -96,96 h 96 v -48 h -96 z m -80,224 h -32 c -17.6,0 -32,-14.4 -32,-32 V 192 c 0,-17.6 14.4,-32 32,-32 h 32 z M 576,192 v 160 c 0,17.6 -14.4,32 -32,32 H 512 V 160 h 32 c 17.6,0 32,14.4 32,32 z"
     id="path152"
     inkscape:connector-curvature="0"
     style="fill:currentColor" />
</svg>
