<?xml version="1.0" encoding="UTF-8" standalone="no"?>
<svg
   xmlns:dc="http://purl.org/dc/elements/1.1/"
   xmlns:cc="http://creativecommons.org/ns#"
   xmlns:rdf="http://www.w3.org/1999/02/22-rdf-syntax-ns#"
   xmlns:svg="http://www.w3.org/2000/svg"
   xmlns="http://www.w3.org/2000/svg"
   xmlns:sodipodi="http://sodipodi.sourceforge.net/DTD/sodipodi-0.dtd"
   xmlns:inkscape="http://www.inkscape.org/namespaces/inkscape"
   aria-hidden="true"
   focusable="false"
   data-prefix="fas"
   data-icon="road"
   class="svg-inline--fa fa-road"
   role="img"
   viewBox="0 0 640 640"
   version="1.1"
   id="svg164"
   sodipodi:docname="via.svg"
   width="640"
   height="640"
   inkscape:version="0.92.5 (2060ec1f9f, 2020-04-08)">
  <metadata
     id="metadata170">
    <rdf:RDF>
      <cc:Work
         rdf:about="">
        <dc:format>image/svg+xml</dc:format>
        <dc:type
           rdf:resource="http://purl.org/dc/dcmitype/StillImage" />
        <dc:title></dc:title>
      </cc:Work>
    </rdf:RDF>
  </metadata>
  <defs
     id="defs168" />
  <sodipodi:namedview
     pagecolor="#ffffff"
     bordercolor="#666666"
     borderopacity="1"
     objecttolerance="10"
     gridtolerance="10"
     guidetolerance="10"
     inkscape:pageopacity="0"
     inkscape:pageshadow="2"
     inkscape:window-width="1920"
     inkscape:window-height="1031"
     id="namedview166"
     showgrid="false"
     inkscape:zoom="0.4609375"
     inkscape:cx="292.33898"
     inkscape:cy="256"
     inkscape:window-x="0"
     inkscape:window-y="25"
     inkscape:window-maximized="1"
     inkscape:current-layer="svg164" />
  <path
     d="m 288,160 c 0,17.7 14.3,32 32,32 17.7,0 32,-14.3 32,-32 V 96 h 74.8 c 27.1,0 51.2,17.08 60.3,42.63 L 604.9,471.2 c 2,5.8 3.1,12 3.1,18.2 0,30.1 -24.5,54.6 -54.6,54.6 H 352 v -64 c 0,-17.7 -14.3,-32 -32,-32 -17.7,0 -32,14.3 -32,32 v 64 H 86.61 C 56.45,544 32,519.5 32,489.4 32,483.2 33.06,477 35.133,471.2 L 152.9,138.63 C 161.1,113.08 186.1,96 213.2,96 h 73.9 z m 64,128 c 0,-17.7 -14.3,-32 -32,-32 -17.7,0 -32,14.3 -32,32 v 64 c 0,17.7 14.3,32 32,32 17.7,0 32,-14.3 32,-32 z"
     id="path162"
     inkscape:connector-curvature="0"
     style="fill:currentColor" />
</svg>
